<?xml version="1.0" encoding="UTF-8"?>
<svg width="80px" height="80px" viewBox="0 0 80 80" version="1.1" xmlns="http://www.w3.org/2000/svg" xmlns:xlink="http://www.w3.org/1999/xlink">
    <title>pull request</title>
    <g id="pull-request" stroke="none" stroke-width="1" fill="none" fill-rule="evenodd">
        <g id="Group-13" transform="translate(26.829268, 25.365854)">
            <g id="Group" transform="translate(0.000300, 0.000300)">
                <line x1="3.2415" y1="10.28325" x2="3.2415" y2="21.84075" id="Stroke-1" stroke="#656C80" stroke-width="3" stroke-linecap="round" stroke-linejoin="round"></line>
                <path d="M22.4412,21.8409 L22.4412,9.5124 C22.4412,7.2864 20.6367,5.4819 18.4092,5.4819 L16.2957,5.4819" id="Stroke-3" stroke="#656C80" stroke-width="3" stroke-linecap="round" stroke-linejoin="round"></path>
                <path d="M3.2415,8.6763 L3.2415,8.6763 C1.476,8.6763 0.0465,7.2468 0.0465,5.4813 C0.0465,3.7173 1.476,2.2863 3.2415,2.2863 C5.007,2.2863 6.4365,3.7173 6.4365,5.4813 C6.4365,7.2468 5.007,8.6763 3.2415,8.6763 Z" id="Stroke-5" stroke="#656C80" stroke-width="3" stroke-linecap="round" stroke-linejoin="round"></path>
                <path d="M3.2415,29.22375 L3.2415,29.22375 C1.452,29.22375 -1.27764466e-12,27.77175 -1.27764466e-12,25.98225 C-1.27764466e-12,24.19275 1.452,22.74075 3.2415,22.74075 C5.031,22.74075 6.483,24.19275 6.483,25.98225 C6.483,27.77175 5.031,29.22375 3.2415,29.22375 Z" id="Stroke-7" stroke="#656C80" stroke-width="3" stroke-linecap="round" stroke-linejoin="round"></path>
                <path d="M22.4412,29.22375 L22.4412,29.22375 C20.6502,29.22375 19.1997,27.77175 19.1997,25.98225 C19.1997,24.19275 20.6502,22.74075 22.4412,22.74075 C24.2307,22.74075 25.6827,24.19275 25.6827,25.98225 C25.6827,27.77175 24.2307,29.22375 22.4412,29.22375 Z" id="Stroke-9" stroke="#656C80" stroke-width="3" stroke-linecap="round" stroke-linejoin="round"></path>
                <path d="M15.94755,1.29896094e-13 C15.86355,1.29896094e-13 15.77805,0.0315 15.70755,0.1005 L10.91205,4.8975 C10.58805,5.2185 10.58805,5.7435 10.91205,6.0675 L15.70755,10.8615 C15.77805,10.932 15.86355,10.965 15.94755,10.965 C16.12605,10.965 16.29555,10.827 16.29555,10.6185 L16.29555,0.345 C16.29555,0.138 16.12605,1.29896094e-13 15.94755,1.29896094e-13" id="Fill-11" fill="#656C80"></path>
            </g>
        </g>
    </g>
</svg>